<?xml version="1.0" encoding="UTF-8" standalone="no"?>
<svg
   xmlns:dc="http://purl.org/dc/elements/1.1/"
   xmlns:cc="http://creativecommons.org/ns#"
   xmlns:rdf="http://www.w3.org/1999/02/22-rdf-syntax-ns#"
   xmlns:svg="http://www.w3.org/2000/svg"
   xmlns="http://www.w3.org/2000/svg"
   xmlns:sodipodi="http://sodipodi.sourceforge.net/DTD/sodipodi-0.dtd"
   xmlns:inkscape="http://www.inkscape.org/namespaces/inkscape"
   width="606mm"
   height="403mm"
   viewBox="0 0 606 403"
   version="1.1"
   preserveAspectRatio="xMidYMid meet"
   id="svg84"
   sodipodi:docname="box3.svg"
   inkscape:version="0.92.5 (2060ec1f9f, 2020-04-08)">
  <metadata
     id="metadata90">
    <rdf:RDF>
      <cc:Work
         rdf:about="">
        <dc:format>image/svg+xml</dc:format>
        <dc:type
           rdf:resource="http://purl.org/dc/dcmitype/StillImage" />
        <dc:title></dc:title>
      </cc:Work>
    </rdf:RDF>
  </metadata>
  <defs
     id="defs88" />
  <sodipodi:namedview
     pagecolor="#ffffff"
     bordercolor="#666666"
     borderopacity="1"
     objecttolerance="10"
     gridtolerance="10"
     guidetolerance="10"
     inkscape:pageopacity="0"
     inkscape:pageshadow="2"
     inkscape:window-width="1440"
     inkscape:window-height="851"
     id="namedview86"
     showgrid="false"
     inkscape:zoom="0.5"
     inkscape:cx="457.92109"
     inkscape:cy="47.45948"
     inkscape:window-x="0"
     inkscape:window-y="25"
     inkscape:window-maximized="1"
     inkscape:current-layer="svg84" />
  <g
     id="svgGroup"
     font-size="9pt"
     style="stroke:#000;stroke-width:0.25mm;fill:none"
     stroke-linecap="round"
     stroke-width="0.25mm"
     stroke="#000"
     fill-rule="evenodd"
     fill="none">
    <path
       d="M 0 303 L 0 314.563 L 3 314.563 L 3 329.938 L 0 329.938 L 0 345.313 L 3 345.313 L 3 360.688 L 0 360.688 L 0 376.063 L 3 376.063 L 3 391.438 L 0 391.438 L 0 403 L 15.438 403 L 15.438 400 L 30.813 400 L 30.813 403 L 46.188 403 L 46.188 400 L 61.563 400 L 61.563 403 L 76.938 403 L 76.938 400 L 92.313 400 L 92.313 403 L 107.688 403 L 107.688 400 L 123.063 400 L 123.063 403 L 138.438 403 L 138.438 400 L 153.813 400 L 153.813 403 L 169.188 403 L 169.188 400 L 184.563 400 L 184.563 403 L 200 403 L 200 391.438 L 197 391.438 L 197 376.063 L 200 376.063 L 200 360.688 L 197 360.688 L 197 345.313 L 200 345.313 L 200 329.938 L 197 329.938 L 197 314.563 L 200 314.563 L 200 303 L 184.563 303 L 184.563 306 L 169.188 306 L 169.188 303 L 153.813 303 L 153.813 306 L 138.438 306 L 138.438 303 L 123.063 303 L 123.063 306 L 107.688 306 L 107.688 303 L 92.313 303 L 92.313 306 L 76.938 306 L 76.938 303 L 61.563 303 L 61.563 306 L 46.188 306 L 46.188 303 L 30.813 303 L 30.813 306 L 15.438 306 L 15.438 303 L 0 303 Z"
       id="front_outsideCutPath"
       style="stroke:#fe0000;stroke-width:0.99999996;stroke-miterlimit:4;stroke-dasharray:none;stroke-opacity:1"
       stroke-width="0.1"
       stroke="#000000"
       vector-effect="non-scaling-stroke" />
    <path
       d="M 206 303 L 206 314.563 L 203 314.563 L 203 329.938 L 206 329.938 L 206 345.313 L 203 345.313 L 203 360.688 L 206 360.688 L 206 376.063 L 203 376.063 L 203 391.438 L 206 391.438 L 206 403 L 218.438 403 L 218.438 400 L 233.813 400 L 233.813 403 L 249.188 403 L 249.188 400 L 264.563 400 L 264.563 403 L 279.938 403 L 279.938 400 L 295.313 400 L 295.313 403 L 310.688 403 L 310.688 400 L 326.063 400 L 326.063 403 L 341.438 403 L 341.438 400 L 356.813 400 L 356.813 403 L 372.188 403 L 372.188 400 L 387.563 400 L 387.563 403 L 400 403 L 400 391.438 L 403 391.438 L 403 376.063 L 400 376.063 L 400 360.688 L 403 360.688 L 403 345.313 L 400 345.313 L 400 329.938 L 403 329.938 L 403 314.563 L 400 314.563 L 400 303 L 387.563 303 L 387.563 306 L 372.188 306 L 372.188 303 L 356.813 303 L 356.813 306 L 341.438 306 L 341.438 303 L 326.063 303 L 326.063 306 L 310.688 306 L 310.688 303 L 295.313 303 L 295.313 306 L 279.938 306 L 279.938 303 L 264.563 303 L 264.563 306 L 249.188 306 L 249.188 303 L 233.813 303 L 233.813 306 L 218.438 306 L 218.438 303 L 206 303 Z"
       id="left_outsideCutPath"
       style="stroke:#fe0000;stroke-width:0.99999996;stroke-miterlimit:4;stroke-dasharray:none;stroke-opacity:1"
       stroke-width="0.1"
       stroke="#000000"
       vector-effect="non-scaling-stroke" />
    <path
       d="M 409 206 L 409 218.438 L 406 218.438 L 406 233.813 L 409 233.813 L 409 249.188 L 406 249.188 L 406 264.563 L 409 264.563 L 409 279.938 L 406 279.938 L 406 295.313 L 409 295.313 L 409 310.688 L 406 310.688 L 406 326.063 L 409 326.063 L 409 341.438 L 406 341.438 L 406 356.813 L 409 356.813 L 409 372.188 L 406 372.188 L 406 387.563 L 409 387.563 L 409 400 L 421.438 400 L 421.438 403 L 436.813 403 L 436.813 400 L 452.188 400 L 452.188 403 L 467.563 403 L 467.563 400 L 482.938 400 L 482.938 403 L 498.313 403 L 498.313 400 L 513.688 400 L 513.688 403 L 529.063 403 L 529.063 400 L 544.438 400 L 544.438 403 L 559.813 403 L 559.813 400 L 575.188 400 L 575.188 403 L 590.563 403 L 590.563 400 L 603 400 L 603 387.563 L 606 387.563 L 606 372.188 L 603 372.188 L 603 356.813 L 606 356.813 L 606 341.438 L 603 341.438 L 603 326.063 L 606 326.063 L 606 310.688 L 603 310.688 L 603 295.313 L 606 295.313 L 606 279.938 L 603 279.938 L 603 264.563 L 606 264.563 L 606 249.188 L 603 249.188 L 603 233.813 L 606 233.813 L 606 218.438 L 603 218.438 L 603 206 L 590.563 206 L 590.563 203 L 575.188 203 L 575.188 206 L 559.813 206 L 559.813 203 L 544.438 203 L 544.438 206 L 529.063 206 L 529.063 203 L 513.688 203 L 513.688 206 L 498.313 206 L 498.313 203 L 482.938 203 L 482.938 206 L 467.563 206 L 467.563 203 L 452.188 203 L 452.188 206 L 436.813 206 L 436.813 203 L 421.438 203 L 421.438 206 L 409 206 Z"
       id="top_outsideCutPath"
       style="stroke:#fc0000;stroke-width:0.99999996;stroke-miterlimit:4;stroke-dasharray:none;stroke-opacity:1"
       stroke-width="0.1"
       stroke="#000000"
       vector-effect="non-scaling-stroke" />
    <path
       d="M 0 200 L 0 211.563 L 3 211.563 L 3 226.938 L 0 226.938 L 0 242.313 L 3 242.313 L 3 257.688 L 0 257.688 L 0 273.063 L 3 273.063 L 3 288.438 L 0 288.438 L 0 300 L 15.438 300 L 15.438 297 L 30.813 297 L 30.813 300 L 46.188 300 L 46.188 297 L 61.563 297 L 61.563 300 L 76.938 300 L 76.938 297 L 92.313 297 L 92.313 300 L 107.688 300 L 107.688 297 L 123.063 297 L 123.063 300 L 138.438 300 L 138.438 297 L 153.813 297 L 153.813 300 L 169.188 300 L 169.188 297 L 184.563 297 L 184.563 300 L 200 300 L 200 288.438 L 197 288.438 L 197 273.063 L 200 273.063 L 200 257.688 L 197 257.688 L 197 242.313 L 200 242.313 L 200 226.938 L 197 226.938 L 197 211.563 L 200 211.563 L 200 200 L 184.563 200 L 184.563 203 L 169.188 203 L 169.188 200 L 153.813 200 L 153.813 203 L 138.438 203 L 138.438 200 L 123.063 200 L 123.063 203 L 107.688 203 L 107.688 200 L 92.313 200 L 92.313 203 L 76.938 203 L 76.938 200 L 61.563 200 L 61.563 203 L 46.188 203 L 46.188 200 L 30.813 200 L 30.813 203 L 15.438 203 L 15.438 200 L 0 200 Z"
       id="back_outsideCutPath"
       style="stroke:#ff0000;stroke-width:0.59999998;stroke-miterlimit:4;stroke-dasharray:none;stroke-opacity:1"
       stroke-width="0.1"
       stroke="#000000"
       vector-effect="non-scaling-stroke" />
    <path
       d="M 206 200 L 206 211.563 L 203 211.563 L 203 226.938 L 206 226.938 L 206 242.313 L 203 242.313 L 203 257.688 L 206 257.688 L 206 273.063 L 203 273.063 L 203 288.438 L 206 288.438 L 206 300 L 218.438 300 L 218.438 297 L 233.813 297 L 233.813 300 L 249.188 300 L 249.188 297 L 264.563 297 L 264.563 300 L 279.938 300 L 279.938 297 L 295.313 297 L 295.313 300 L 310.688 300 L 310.688 297 L 326.063 297 L 326.063 300 L 341.438 300 L 341.438 297 L 356.813 297 L 356.813 300 L 372.188 300 L 372.188 297 L 387.563 297 L 387.563 300 L 400 300 L 400 288.438 L 403 288.438 L 403 273.063 L 400 273.063 L 400 257.688 L 403 257.688 L 403 242.313 L 400 242.313 L 400 226.938 L 403 226.938 L 403 211.563 L 400 211.563 L 400 200 L 387.563 200 L 387.563 203 L 372.188 203 L 372.188 200 L 356.813 200 L 356.813 203 L 341.438 203 L 341.438 200 L 326.063 200 L 326.063 203 L 310.688 203 L 310.688 200 L 295.313 200 L 295.313 203 L 279.938 203 L 279.938 200 L 264.563 200 L 264.563 203 L 249.188 203 L 249.188 200 L 233.813 200 L 233.813 203 L 218.438 203 L 218.438 200 L 206 200 Z"
       id="right_outsideCutPath"
       style="stroke:#fe0000;stroke-width:0.99999996;stroke-miterlimit:4;stroke-dasharray:none;stroke-opacity:1"
       stroke-width="0.1"
       stroke="#000000"
       vector-effect="non-scaling-stroke" />
    <path
       d="M 409 3 L 409 15.438 L 406 15.438 L 406 30.813 L 409 30.813 L 409 46.188 L 406 46.188 L 406 61.563 L 409 61.563 L 409 76.938 L 406 76.938 L 406 92.313 L 409 92.313 L 409 107.688 L 406 107.688 L 406 123.063 L 409 123.063 L 409 138.438 L 406 138.438 L 406 153.813 L 409 153.813 L 409 169.188 L 406 169.188 L 406 184.563 L 409 184.563 L 409 197 L 421.438 197 L 421.438 200 L 436.813 200 L 436.813 197 L 452.188 197 L 452.188 200 L 467.563 200 L 467.563 197 L 482.938 197 L 482.938 200 L 498.313 200 L 498.313 197 L 513.688 197 L 513.688 200 L 529.063 200 L 529.063 197 L 544.438 197 L 544.438 200 L 559.813 200 L 559.813 197 L 575.188 197 L 575.188 200 L 590.563 200 L 590.563 197 L 603 197 L 603 184.563 L 606 184.563 L 606 169.188 L 603 169.188 L 603 153.813 L 606 153.813 L 606 138.438 L 603 138.438 L 603 123.063 L 606 123.063 L 606 107.688 L 603 107.688 L 603 92.313 L 606 92.313 L 606 76.938 L 603 76.938 L 603 61.563 L 606 61.563 L 606 46.188 L 603 46.188 L 603 30.813 L 606 30.813 L 606 15.438 L 603 15.438 L 603 3 L 590.563 3 L 590.563 0 L 575.188 0 L 575.188 3 L 559.813 3 L 559.813 0 L 544.438 0 L 544.438 3 L 529.063 3 L 529.063 0 L 513.688 0 L 513.688 3 L 498.313 3 L 498.313 0 L 482.938 0 L 482.938 3 L 467.563 3 L 467.563 0 L 452.188 0 L 452.188 3 L 436.813 3 L 436.813 0 L 421.438 0 L 421.438 3 L 409 3 Z"
       id="bottom_outsideCutPath"
       style="stroke:#ff0000;stroke-width:0.99999996;stroke-miterlimit:4;stroke-dasharray:none;stroke-opacity:1"
       stroke-width="0.1"
       stroke="#000000"
       vector-effect="non-scaling-stroke" />
  </g>
  <circle
     id="path92"
     cx="92.431976"
     cy="253.26599"
     style="fill:none;fill-opacity:1;stroke:#ff0000;stroke-width:0.46946502;stroke-miterlimit:4;stroke-dasharray:none;stroke-opacity:1"
     r="12.265267" />
  <circle
     id="path92-3"
     cx="33.174988"
     cy="356.40399"
     style="fill:none;fill-opacity:1;stroke:#ff0000;stroke-width:0.69999997;stroke-miterlimit:4;stroke-dasharray:none;stroke-opacity:1"
     r="6.3779387" />
  <circle
     id="path92-3-6"
     cx="159.40501"
     cy="354.40399"
     style="fill:none;fill-opacity:1;stroke:#ff0000;stroke-width:0.84399997;stroke-miterlimit:4;stroke-dasharray:none;stroke-opacity:1"
     r="6.3779387" />
  <rect
     style="fill:none;fill-opacity:1;stroke:#fc0000;stroke-width:0.85599997;stroke-miterlimit:4;stroke-dasharray:none;stroke-opacity:1"
     id="rect4641"
     width="24.443909"
     height="24.443911"
     x="88.933052"
     y="342.65695" />
</svg>
